<?xml version="1.0" encoding="UTF-8"?>
<!DOCTYPE svg PUBLIC "-//W3C//DTD SVG 1.1//EN" "http://www.w3.org/Graphics/SVG/1.1/DTD/svg11.dtd">
<svg version="1.1" xmlns="http://www.w3.org/2000/svg" xmlns:xlink="http://www.w3.org/1999/xlink" x="0" y="0" width="120" height="120" viewBox="0, 0, 120, 120">
  <defs>
    <linearGradient id="Gradient_1" gradientUnits="userSpaceOnUse" x1="60" y1="117.005" x2="60" y2="2.995">
      <stop offset="0" stop-color="#FFFFFF"/>
      <stop offset="1" stop-color="#AA0000"/>
    </linearGradient>
  </defs>
  <g id="Ebene_1">
    <g>
      <path d="M60,117.005 C28.566,117.005 2.995,91.432 2.995,60 C2.995,28.568 28.566,2.995 60,2.995 C91.434,2.995 117.005,28.568 117.005,60 C117.005,91.432 91.434,117.005 60,117.005 z M62.615,57.385 L85.018,57.385 C84.799,49.626 83.598,42.088 81.508,34.976 L62.615,34.976 L62.615,57.385 z M85.018,62.615 L62.615,62.615 L62.615,84.969 L81.523,84.969 C83.603,77.874 84.799,70.354 85.018,62.615 z M111.704,62.615 L90.08,62.615 C89.873,70.324 88.751,77.836 86.787,84.969 L105.333,84.969 C109.033,78.278 111.3,70.689 111.704,62.615 z M102.145,90.025 L85.232,90.025 C82.873,96.944 79.693,103.44 75.741,109.322 C86.49,105.884 95.718,99.021 102.145,90.025 z M68.154,111.129 C73.107,104.91 77.033,97.769 79.858,90.026 L62.615,90.026 L62.615,111.702 C64.488,111.606 66.337,111.417 68.154,111.129 z M57.386,111.705 L57.386,90.025 L38.893,90.025 C41.68,97.66 45.537,104.711 50.393,110.868 C52.676,111.299 55.01,111.582 57.386,111.705 z M42.643,108.774 C38.859,103.037 35.796,96.731 33.51,90.025 L17.859,90.025 C23.962,98.565 32.586,105.184 42.643,108.774 z M14.665,84.968 L31.964,84.968 C30,77.835 28.875,70.324 28.668,62.615 L8.297,62.615 C8.701,70.688 10.965,78.278 14.665,84.968 z M8.297,57.385 L28.668,57.385 C28.875,49.657 30.006,42.127 31.979,34.976 L14.696,34.976 C10.979,41.681 8.702,49.29 8.297,57.385 z M17.899,29.92 L33.528,29.92 C35.811,23.236 38.866,16.949 42.639,11.227 C32.605,14.81 23.998,21.409 17.899,29.92 z M57.386,8.295 C55.01,8.418 52.675,8.701 50.392,9.132 C45.548,15.275 41.699,22.306 38.914,29.92 L57.387,29.92 L57.387,8.295 z M57.386,34.977 L37.241,34.977 C35.15,42.088 33.95,49.627 33.731,57.386 L57.386,57.386 L57.386,34.977 z M33.731,62.615 C33.95,70.355 35.145,77.874 37.226,84.969 L57.386,84.969 L57.386,62.615 L33.731,62.615 z M62.615,8.299 L62.615,29.92 L79.838,29.92 C77.015,22.198 73.097,15.076 68.157,8.872 C66.339,8.583 64.489,8.394 62.615,8.299 z M75.742,10.678 C79.682,16.545 82.857,23.022 85.213,29.92 L102.107,29.92 C95.682,20.952 86.469,14.11 75.742,10.678 z M105.304,34.977 L86.77,34.977 C88.743,42.127 89.872,49.658 90.08,57.386 L111.704,57.386 C111.299,49.29 109.021,41.681 105.304,34.977 z" fill="url(#Gradient_1)"/>
      <path d="M60,0.995 C92.538,0.995 119.005,27.463 119.005,60 C119.005,92.537 92.538,119.005 60,119.005 C27.462,119.005 0.995,92.537 0.995,60 C0.995,27.463 27.462,0.995 60,0.995 z M60,2.995 C28.566,2.995 2.995,28.568 2.995,60 C2.995,91.432 28.566,117.005 60,117.005 C91.434,117.005 117.005,91.432 117.005,60 C117.005,28.568 91.434,2.995 60,2.995 z M57.386,90.025 L57.386,111.705 C55.01,111.582 52.676,111.299 50.393,110.868 C45.537,104.711 41.68,97.66 38.893,90.025 L57.386,90.025 z M55.386,92.025 L41.81,92.025 C44.244,98.119 47.552,103.788 51.5,109.016 C54.53,109.483 53.231,109.343 55.386,109.527 L55.386,92.025 z M79.858,90.026 C77.033,97.769 73.107,104.91 68.154,111.129 C66.337,111.417 64.488,111.606 62.615,111.702 L62.615,90.026 L79.858,90.026 z M76.941,92.026 L64.615,92.026 L64.615,109.543 C65.833,109.449 65.013,109.523 67.068,109.254 C71.085,103.998 74.55,98.214 76.941,92.026 z M102.145,90.025 C95.718,99.021 86.49,105.884 75.741,109.322 C79.693,103.44 82.873,96.944 85.232,90.025 L102.145,90.025 z M98.009,92.025 L86.639,92.025 C85.042,96.585 83.013,100.991 80.599,105.174 C87.386,102.244 93.262,97.657 98.009,92.025 z M33.51,90.025 C35.796,96.731 38.859,103.037 42.643,108.774 C32.586,105.184 23.962,98.565 17.859,90.025 L33.51,90.025 z M32.102,92.025 L21.962,92.025 C26.235,97.399 31.723,101.108 37.666,104.327 C35.424,100.422 33.619,96.261 32.102,92.025 z M57.386,62.615 L57.386,84.969 L37.226,84.969 C35.145,77.874 33.95,70.355 33.731,62.615 L57.386,62.615 z M55.386,64.615 L35.853,64.615 C36.087,70.816 37.102,76.99 38.749,82.969 L55.386,82.969 L55.386,64.615 z M111.704,62.615 C111.3,70.689 109.033,78.278 105.333,84.969 L86.787,84.969 C88.751,77.836 89.873,70.324 90.08,62.615 L111.704,62.615 z M109.541,64.615 L91.969,64.615 C91.801,70.81 90.786,76.955 89.329,82.969 L104.116,82.969 C107.08,77.295 109.038,71.014 109.541,64.615 z M85.018,62.615 C84.799,70.354 83.603,77.874 81.523,84.969 L62.615,84.969 L62.615,62.615 L85.018,62.615 z M82.896,64.615 L64.615,64.615 L64.615,82.969 L79.999,82.969 C81.729,76.994 82.525,70.808 82.896,64.615 z M28.668,62.615 C28.875,70.324 30,77.835 31.964,84.968 L14.665,84.968 C10.965,78.278 8.701,70.688 8.297,62.615 L28.668,62.615 z M26.779,64.615 L10.46,64.615 C10.969,71.032 12.937,77.269 15.882,82.968 L29.422,82.968 C27.777,76.987 27.129,70.79 26.779,64.615 z M105.304,34.977 C109.021,41.681 111.299,49.29 111.704,57.386 L90.08,57.386 C89.872,49.658 88.743,42.127 86.77,34.977 L105.304,34.977 z M104.089,36.977 L89.313,36.977 C90.967,42.975 91.617,49.192 91.969,55.386 L109.541,55.386 C109.031,48.948 107.049,42.692 104.089,36.977 z M57.386,34.977 L57.386,57.386 L33.731,57.386 C33.95,49.627 35.15,42.088 37.241,34.977 L57.386,34.977 z M55.386,36.977 L38.763,36.977 C37.024,42.969 36.225,49.174 35.853,55.386 L55.386,55.386 L55.386,36.977 z M31.979,34.976 C30.006,42.127 28.875,49.657 28.668,57.385 L8.297,57.385 C8.702,49.29 10.979,41.681 14.696,34.976 L31.979,34.976 z M29.436,36.976 L15.911,36.976 C12.932,42.664 10.965,48.966 10.46,55.385 L26.779,55.385 C26.947,49.171 27.97,43.008 29.436,36.976 z M81.508,34.976 C83.598,42.088 84.799,49.626 85.018,57.385 L62.615,57.385 L62.615,34.976 L81.508,34.976 z M79.985,36.976 L64.615,36.976 L64.615,55.385 L82.896,55.385 C82.662,49.165 81.64,42.972 79.985,36.976 z M75.742,10.678 C86.469,14.11 95.682,20.952 102.107,29.92 L85.213,29.92 C82.857,23.022 79.682,16.545 75.742,10.678 z M80.599,14.826 C83.049,18.964 84.995,23.399 86.619,27.92 L97.964,27.92 C93.121,21.799 87.419,18.302 80.599,14.826 z M62.615,8.299 C64.489,8.394 66.339,8.583 68.157,8.872 C73.097,15.076 77.015,22.198 79.838,29.92 L62.615,29.92 L62.615,8.299 z M64.615,10.458 L64.615,27.92 L76.919,27.92 C74.451,21.752 71.09,16.022 67.071,10.746 C65.014,10.477 65.835,10.551 64.615,10.458 z M57.387,8.295 L57.387,29.92 L38.914,29.92 C41.699,22.306 45.548,15.275 50.392,9.132 C52.675,8.701 55.01,8.418 57.386,8.295 L57.387,8.295 z M55.387,10.472 C53.23,10.657 54.53,10.517 51.499,10.984 C47.34,16.074 44.523,21.981 41.833,27.92 L55.387,27.92 L55.387,10.472 z M42.639,11.227 C38.866,16.949 35.811,23.236 33.528,29.92 L17.899,29.92 C23.998,21.409 32.605,14.81 42.639,11.227 z M37.663,15.674 C31.359,18.348 26.69,23.121 22.011,27.92 L32.121,27.92 C33.629,23.699 35.444,19.571 37.663,15.674 z" fill="#AA0000"/>
    </g>
  </g>
</svg>
