<?xml version="1.0" encoding="utf-8"?>
<!-- Generator: Adobe Illustrator 17.0.0, SVG Export Plug-In . SVG Version: 6.00 Build 0)  -->
<!DOCTYPE svg PUBLIC "-//W3C//DTD SVG 1.1//EN" "http://www.w3.org/Graphics/SVG/1.1/DTD/svg11.dtd">
<svg version="1.1" id="sun" xmlns="http://www.w3.org/2000/svg" xmlns:xlink="http://www.w3.org/1999/xlink" x="0px" y="0px"
	 width="226.772px" height="226.772px" viewBox="0 0 226.772 226.772" style="enable-background:new 0 0 226.772 226.772;"
	 xml:space="preserve">
<path style="fill-rule:evenodd;clip-rule:evenodd;" d="M174.957,130.07c17.402-3.004,13.889-24.036,24.569-25.64
	c13.732-2.06,26.398,17.504,26.395,17.504c0,0-5.565-28.721-27.048-26.175c-17.471,2.068-14.561,17.542-24.988,19.356
	c-7.533,1.307-15.321-4.291-20.229-8.814c4.669-0.53,13.208-2.438,21.393-9.25c13.569-11.302,0.008-27.759,8.459-34.491
	c10.862-8.648,31.613,1.96,31.61,1.96c0,0-19.18-22.089-36.512-9.142c-14.096,10.526-3.838,22.47-11.964,29.261
	c-5.867,4.892-15.411,3.943-21.923,2.474c3.779-2.786,10.219-8.715,13.899-18.701c6.102-16.577-13.871-24.046-9.917-34.102
	c5.084-12.921,28.358-14.109,28.353-14.106c0,0-27.654-9.544-36.187,10.335c-6.947,16.168,7.911,21.383,4.268,31.318
	c-2.635,7.177-11.376,11.125-17.747,13.111c1.876-4.304,4.491-12.658,2.682-23.151c-3.001-17.399-24.034-13.886-25.638-24.566
	c-2.06-13.735,17.504-26.398,17.501-26.398c0,0-28.716,5.565-26.173,27.05c2.07,17.468,17.542,14.561,19.356,24.985
	c1.307,7.533-4.289,15.319-8.817,20.224c-0.527-4.667-2.438-13.208-9.25-21.385c-11.299-13.569-27.759-0.01-34.486-8.462
	c-8.651-10.864,1.957-31.613,1.955-31.613c0,0-22.086,19.18-9.137,36.517C65.903,62.262,77.85,52.01,84.63,60.128
	C89.533,66,88.578,75.542,87.11,82.054c-2.789-3.779-8.712-10.222-18.704-13.899c-16.57-6.105-24.046,13.87-34.097,9.917
	c-12.921-5.081-14.111-28.358-14.111-28.358S10.659,77.374,30.54,85.909c16.16,6.944,21.383-7.911,31.313-4.27
	c7.18,2.635,11.125,11.378,13.111,17.747c-4.306-1.873-12.655-4.491-23.148-2.684c-17.402,3.004-13.886,24.041-24.569,25.643
	c-13.735,2.057-26.398-17.506-26.395-17.504c0,0,5.565,28.719,27.05,26.17c17.468-2.065,14.561-17.54,24.981-19.351
	c7.535-1.313,15.326,4.286,20.232,8.814c-4.667,0.527-13.208,2.438-21.391,9.25c-13.571,11.299-0.008,27.759-8.459,34.488
	c-10.862,8.648-31.612-1.96-31.607-1.96c0,0,19.178,22.089,36.51,9.14c14.093-10.521,3.84-22.47,11.959-29.253
	c5.867-4.9,15.414-3.943,21.928-2.479c-3.782,2.794-10.219,8.717-13.899,18.706c-6.102,16.57,13.87,24.047,9.918,34.097
	c-5.082,12.924-28.358,14.109-28.353,14.109c0,0,27.654,9.539,36.19-10.342c6.942-16.158-7.914-21.378-4.271-31.311
	c2.633-7.182,11.373-11.125,17.747-13.113c-1.875,4.306-4.49,12.66-2.681,23.151c3.001,17.404,24.036,13.886,25.638,24.571
	c2.06,13.73-17.504,26.398-17.501,26.393c0,0,28.721-5.565,26.173-27.05c-2.07-17.465-17.542-14.561-19.359-24.983
	c-1.307-7.535,4.294-15.324,8.817-20.232c0.527,4.667,2.438,13.211,9.252,21.393c11.302,13.571,27.759,0.008,34.486,8.457
	c8.651,10.864-1.957,31.615-1.957,31.612c0,0,22.092-19.182,9.142-36.512c-10.524-14.096-22.473-3.84-29.258-11.959
	c-4.897-5.87-3.945-15.416-2.477-21.928c2.789,3.779,8.715,10.219,18.707,13.898c16.573,6.102,24.046-13.868,34.097-9.915
	c12.921,5.079,14.111,28.355,14.109,28.353c0,0,9.539-27.657-10.337-36.193c-16.163-6.942-21.383,7.911-31.318,4.27
	c-7.18-2.633-11.125-11.373-13.111-17.747C156.112,129.261,164.463,131.876,174.957,130.07z M113.387,147.279
	c-18.719,0-33.895-15.176-33.895-33.895c0-18.719,15.175-33.89,33.895-33.89c18.717,0,33.892,15.17,33.892,33.89
	C147.279,132.104,132.104,147.279,113.387,147.279z M84.042,113.385c0-16.204,13.136-29.343,29.345-29.343
	c16.204,0,29.343,13.139,29.343,29.343c0,16.206-13.139,29.346-29.343,29.346C97.178,142.73,84.042,129.591,84.042,113.385z"/>
</svg>
