<?xml version="1.0" encoding="utf-8"?>
<!-- Generator: Adobe Illustrator 17.1.0, SVG Export Plug-In . SVG Version: 6.00 Build 0)  -->
<!DOCTYPE svg PUBLIC "-//W3C//DTD SVG 1.1//EN" "http://www.w3.org/Graphics/SVG/1.1/DTD/svg11.dtd">
<svg version="1.1" id="sun" xmlns="http://www.w3.org/2000/svg" xmlns:xlink="http://www.w3.org/1999/xlink" x="0px" y="0px"
	 viewBox="0 0 226.8 226.8" enable-background="new 0 0 226.8 226.8" xml:space="preserve">
<path fill="#FFFFFF" d="M175,130.1c17.4-3,13.9-24,24.6-25.6c13.7-2.1,26.4,17.5,26.4,17.5c0,0-5.6-28.7-27-26.2
	c-17.5,2.1-14.6,17.5-25,19.4c-7.5,1.3-15.3-4.3-20.2-8.8c4.7-0.5,13.2-2.4,21.4-9.2c13.6-11.3,0-27.8,8.5-34.5
	c10.9-8.6,31.6,2,31.6,2c0,0-19.2-22.1-36.5-9.1c-14.1,10.5-3.8,22.5-12,29.3c-5.9,4.9-15.4,3.9-21.9,2.5
	c3.8-2.8,10.2-8.7,13.9-18.7c6.1-16.6-13.9-24-9.9-34.1c5.1-12.9,28.4-14.1,28.4-14.1c0,0-27.7-9.5-36.2,10.3
	c-6.9,16.2,7.9,21.4,4.3,31.3C142.5,69,133.8,73,127.4,75c1.9-4.3,4.5-12.7,2.7-23.2c-3-17.4-24-13.9-25.6-24.6
	c-2.1-13.7,17.5-26.4,17.5-26.4c0,0-28.7,5.6-26.2,27c2.1,17.5,17.5,14.6,19.4,25c1.3,7.5-4.3,15.3-8.8,20.2
	c-0.5-4.7-2.4-13.2-9.2-21.4c-11.3-13.6-27.8,0-34.5-8.5c-8.7-10.9,2-31.6,2-31.6c0,0-22.1,19.2-9.1,36.5
	c10.5,14.1,22.5,3.8,29.2,12c4.9,5.9,3.9,15.4,2.5,21.9c-2.8-3.8-8.7-10.2-18.7-13.9C51.8,62,44.4,82,34.3,78.1
	C21.4,73,20.2,49.7,20.2,49.7s-9.5,27.7,10.3,36.2c16.2,6.9,21.4-7.9,31.3-4.3C69,84.3,73,93,75,99.4c-4.3-1.9-12.7-4.5-23.1-2.7
	c-17.4,3-13.9,24-24.6,25.6c-13.7,2.1-26.4-17.5-26.4-17.5c0,0,5.6,28.7,27,26.2c17.5-2.1,14.6-17.5,25-19.4
	c7.5-1.3,15.3,4.3,20.2,8.8c-4.7,0.5-13.2,2.4-21.4,9.2c-13.6,11.3,0,27.8-8.5,34.5c-10.9,8.6-31.6-2-31.6-2c0,0,19.2,22.1,36.5,9.1
	c14.1-10.5,3.8-22.5,12-29.3c5.9-4.9,15.4-3.9,21.9-2.5c-3.8,2.8-10.2,8.7-13.9,18.7c-6.1,16.6,13.9,24,9.9,34.1
	c-5.1,12.9-28.4,14.1-28.4,14.1c0,0,27.7,9.5,36.2-10.3c6.9-16.2-7.9-21.4-4.3-31.3c2.6-7.2,11.4-11.1,17.7-13.1
	c-1.9,4.3-4.5,12.7-2.7,23.2c3,17.4,24,13.9,25.6,24.6c2.1,13.7-17.5,26.4-17.5,26.4c0,0,28.7-5.6,26.2-27.1
	c-2.1-17.5-17.5-14.6-19.4-25c-1.3-7.5,4.3-15.3,8.8-20.2c0.5,4.7,2.4,13.2,9.3,21.4c11.3,13.6,27.8,0,34.5,8.5
	c8.7,10.9-2,31.6-2,31.6c0,0,22.1-19.2,9.1-36.5c-10.5-14.1-22.5-3.8-29.3-12c-4.9-5.9-3.9-15.4-2.5-21.9
	c2.8,3.8,8.7,10.2,18.7,13.9c16.6,6.1,24-13.9,34.1-9.9c12.9,5.1,14.1,28.4,14.1,28.4c0,0,9.5-27.7-10.3-36.2
	c-16.2-6.9-21.4,7.9-31.3,4.3c-7.2-2.6-11.1-11.4-13.1-17.7C156.1,129.3,164.5,131.9,175,130.1z M113.4,147.3
	c-18.7,0-33.9-15.2-33.9-33.9s15.2-33.9,33.9-33.9c18.7,0,33.9,15.2,33.9,33.9S132.1,147.3,113.4,147.3z M84,113.4
	C84,97.2,97.2,84,113.4,84c16.2,0,29.3,13.1,29.3,29.3c0,16.2-13.1,29.3-29.3,29.3C97.2,142.7,84,129.6,84,113.4z"/>
</svg>
