<?xml version="1.0" encoding="UTF-8"?>
<!DOCTYPE svg PUBLIC "-//W3C//DTD SVG 1.1//EN" "http://www.w3.org/Graphics/SVG/1.1/DTD/svg11.dtd">
<svg version="1.1" xmlns="http://www.w3.org/2000/svg" xmlns:xlink="http://www.w3.org/1999/xlink" x="0" y="0" width="134.423" height="73.578" viewBox="0, 0, 134.423, 73.578">
  <g id="Ebene_1">
    <g>
      <path d="M10.293,69.745 L57.043,69.745 L57.043,25.495 L33.678,2.12 L10.306,25.508 z" fill="#FFFA00"/>
      <path d="M10.293,69.745 L57.043,69.745 L57.043,25.495 L33.678,2.12 L10.306,25.508 z" fill-opacity="0" stroke="#000000" stroke-width="1.5"/>
    </g>
    <path d="M19.014,49.841 L25.014,49.841 L25.014,69.757 L19.014,69.757 z" fill="#000000"/>
    <g>
      <path d="M41.989,35.174 C41.989,46.206 33.046,55.149 22.014,55.149 C10.982,55.149 2.039,46.206 2.039,35.174 C2.039,24.142 10.982,15.199 22.014,15.199 C33.046,15.199 41.989,24.142 41.989,35.174 z" fill="#009169"/>
      <path d="M41.989,35.174 C41.989,46.206 33.046,55.149 22.014,55.149 C10.982,55.149 2.039,46.206 2.039,35.174 C2.039,24.142 10.982,15.199 22.014,15.199 C33.046,15.199 41.989,24.142 41.989,35.174 z" fill-opacity="0" stroke="#FFFFFF" stroke-width="1.2"/>
    </g>
    <path d="M64.578,23.881 L68.374,23.881 L68.374,31.549 L75.686,31.549 L75.686,23.881 L79.52,23.881 L79.52,43.305 L75.686,43.305 L75.686,34.901 L68.374,34.901 L68.374,43.305 L64.578,43.305 L64.578,23.881 z" fill="#009169"/>
    <path d="M91.422,23.5 C93.25,23.5 94.723,23.805 95.84,24.414 C97.305,25.21 98.422,26.352 99.192,27.842 C99.963,29.331 100.347,31.286 100.347,33.707 C100.347,36.991 99.573,39.475 98.024,41.159 C96.475,42.843 94.427,43.685 91.879,43.685 C89.307,43.685 87.227,42.828 85.64,41.115 C84.053,39.4 83.259,36.897 83.259,33.605 C83.259,31.625 83.58,29.847 84.224,28.273 C84.571,27.401 85.102,26.588 85.818,25.835 C86.533,25.082 87.367,24.504 88.319,24.103 C89.271,23.701 90.305,23.5 91.422,23.5 z M91.803,26.826 C90.491,26.826 89.408,27.35 88.553,28.4 C87.699,29.45 87.271,31.184 87.271,33.605 C87.271,35.983 87.705,37.693 88.573,38.734 C89.44,39.775 90.552,40.296 91.905,40.296 C93.192,40.296 94.262,39.777 95.117,38.74 C95.971,37.704 96.399,36.005 96.399,33.643 C96.399,31.002 95.878,29.145 94.837,28.07 C94.033,27.241 93.022,26.826 91.803,26.826 z" fill="#009169"/>
    <path d="M104.034,23.881 L107.83,23.881 L107.83,39.953 L115.853,39.953 L115.853,43.305 L104.034,43.305 L104.034,23.881 z" fill="#009169"/>
    <path d="M118.26,23.881 L132.034,23.881 L132.034,26.876 L122.992,39.953 L132.263,39.953 L132.263,43.305 L117.79,43.305 L117.79,40.702 L127.159,27.22 L118.26,27.22 L118.26,23.881 z" fill="#009169"/>
    <path d="M64.578,51.181 L68.374,51.181 L68.374,58.849 L75.686,58.849 L75.686,51.181 L79.52,51.181 L79.52,70.605 L75.686,70.605 L75.686,62.2 L68.374,62.2 L68.374,70.604 L64.578,70.604 L64.578,51.181 z" fill="#009169"/>
    <path d="M88.302,51.181 L92.355,51.181 L98.678,70.605 L94.92,70.605 L93.446,66.047 L87.237,66.047 L85.766,70.605 L82.008,70.605 L88.302,51.181 z M90.337,56.437 L88.11,63.216 L92.53,63.216 L90.337,56.437 z" fill="#009169"/>
    <path d="M100.24,51.181 L104.074,51.181 L104.074,63.038 C104.074,64.519 104.417,65.628 105.102,66.364 C105.787,67.1 106.718,67.468 107.895,67.468 C108.648,67.468 109.317,67.321 109.901,67.024 C110.485,66.728 110.952,66.246 111.303,65.577 C111.655,64.909 111.83,64.062 111.83,63.038 L111.83,51.181 L115.677,51.181 L115.677,63.597 C115.677,65.967 115.03,67.791 113.735,69.069 C112.44,70.347 110.544,70.986 108.047,70.986 C106.608,70.986 105.267,70.757 104.023,70.3 C103.363,70.055 102.812,69.734 102.373,69.335 C101.764,68.776 101.256,68.064 100.85,67.196 C100.444,66.328 100.241,65.163 100.241,63.698 L100.241,51.181 z" fill="#009169"/>
    <path d="M122.222,65.171 C122.866,66.161 123.498,66.852 124.12,67.24 C124.742,67.63 125.476,67.824 126.322,67.824 C127.338,67.824 128.13,67.572 128.696,67.069 C129.263,66.565 129.547,65.97 129.547,65.285 C129.547,64.684 129.323,64.155 128.874,63.698 C128.417,63.241 127.397,62.802 125.814,62.378 C123.656,61.812 122.112,61.117 121.18,60.296 C120.021,59.264 119.441,57.985 119.441,56.462 C119.441,54.829 120.021,53.477 121.18,52.406 C122.34,51.335 123.931,50.8 125.953,50.8 C127.104,50.8 128.131,50.992 129.032,51.378 C129.933,51.763 130.697,52.256 131.323,52.857 C131.729,53.255 132.135,53.801 132.542,54.495 L129.343,55.803 C128.802,55.033 128.247,54.47 127.68,54.115 C127.114,53.76 126.483,53.582 125.788,53.582 C124.934,53.582 124.25,53.821 123.738,54.3 C123.225,54.778 122.969,55.356 122.969,56.032 C122.969,56.574 123.181,57.04 123.604,57.428 C124.019,57.818 125.06,58.22 126.727,58.634 C128.395,59.049 129.658,59.531 130.517,60.081 C131.375,60.632 132.019,61.347 132.447,62.227 C132.874,63.108 133.088,64.013 133.088,64.944 C133.088,65.926 132.814,66.912 132.263,67.902 C131.713,68.892 130.897,69.654 129.813,70.187 C128.73,70.72 127.486,70.987 126.081,70.987 C124.753,70.987 123.6,70.765 122.622,70.321 C121.644,69.877 120.817,69.278 120.14,68.524 C119.701,68.042 119.256,67.369 118.807,66.505 L122.222,65.171 z" fill="#009169"/>
  </g>
</svg>
